<svg aria-roledescription="flowchart-v2" role="graphics-document document" viewBox="0 -49 782.98046875 1728" style="max-width: 782.98px; background-color: white;" class="flowchart" xmlns:xlink="http://www.w3.org/1999/xlink" xmlns="http://www.w3.org/2000/svg" width="100%" id="my-svg"><style>#my-svg{font-family:"trebuchet ms",verdana,arial,sans-serif;font-size:16px;fill:#333;}#my-svg .error-icon{fill:#552222;}#my-svg .error-text{fill:#552222;stroke:#552222;}#my-svg .edge-thickness-normal{stroke-width:1px;}#my-svg .edge-thickness-thick{stroke-width:3.5px;}#my-svg .edge-pattern-solid{stroke-dasharray:0;}#my-svg .edge-thickness-invisible{stroke-width:0;fill:none;}#my-svg .edge-pattern-dashed{stroke-dasharray:3;}#my-svg .edge-pattern-dotted{stroke-dasharray:2;}#my-svg .marker{fill:#333333;stroke:#333333;}#my-svg .marker.cross{stroke:#333333;}#my-svg svg{font-family:"trebuchet ms",verdana,arial,sans-serif;font-size:16px;}#my-svg p{margin:0;}#my-svg .label{font-family:"trebuchet ms",verdana,arial,sans-serif;color:#333;}#my-svg .cluster-label text{fill:#333;}#my-svg .cluster-label span{color:#333;}#my-svg .cluster-label span p{background-color:transparent;}#my-svg .label text,#my-svg span{fill:#333;color:#333;}#my-svg .node rect,#my-svg .node circle,#my-svg .node ellipse,#my-svg .node polygon,#my-svg .node path{fill:#ECECFF;stroke:#9370DB;stroke-width:1px;}#my-svg .rough-node .label text,#my-svg .node .label text,#my-svg .image-shape .label,#my-svg .icon-shape .label{text-anchor:middle;}#my-svg .node .katex path{fill:#000;stroke:#000;stroke-width:1px;}#my-svg .rough-node .label,#my-svg .node .label,#my-svg .image-shape .label,#my-svg .icon-shape .label{text-align:center;}#my-svg .node.clickable{cursor:pointer;}#my-svg .root .anchor path{fill:#333333!important;stroke-width:0;stroke:#333333;}#my-svg .arrowheadPath{fill:#333333;}#my-svg .edgePath .path{stroke:#333333;stroke-width:2.0px;}#my-svg .flowchart-link{stroke:#333333;fill:none;}#my-svg .edgeLabel{background-color:rgba(232,232,232, 0.8);text-align:center;}#my-svg .edgeLabel p{background-color:rgba(232,232,232, 0.8);}#my-svg .edgeLabel rect{opacity:0.5;background-color:rgba(232,232,232, 0.8);fill:rgba(232,232,232, 0.8);}#my-svg .labelBkg{background-color:rgba(232, 232, 232, 0.5);}#my-svg .cluster rect{fill:#ffffde;stroke:#aaaa33;stroke-width:1px;}#my-svg .cluster text{fill:#333;}#my-svg .cluster span{color:#333;}#my-svg div.mermaidTooltip{position:absolute;text-align:center;max-width:200px;padding:2px;font-family:"trebuchet ms",verdana,arial,sans-serif;font-size:12px;background:hsl(80, 100%, 96.2745098039%);border:1px solid #aaaa33;border-radius:2px;pointer-events:none;z-index:100;}#my-svg .flowchartTitleText{text-anchor:middle;font-size:18px;fill:#333;}#my-svg rect.text{fill:none;stroke-width:0;}#my-svg .icon-shape,#my-svg .image-shape{background-color:rgba(232,232,232, 0.8);text-align:center;}#my-svg .icon-shape p,#my-svg .image-shape p{background-color:rgba(232,232,232, 0.8);padding:2px;}#my-svg .icon-shape rect,#my-svg .image-shape rect{opacity:0.5;background-color:rgba(232,232,232, 0.8);fill:rgba(232,232,232, 0.8);}#my-svg :root{--mermaid-font-family:"trebuchet ms",verdana,arial,sans-serif;}</style><g><marker orient="auto" markerHeight="8" markerWidth="8" markerUnits="userSpaceOnUse" refY="5" refX="5" viewBox="0 0 10 10" class="marker flowchart-v2" id="my-svg_flowchart-v2-pointEnd"><path style="stroke-width: 1; stroke-dasharray: 1, 0;" class="arrowMarkerPath" d="M 0 0 L 10 5 L 0 10 z"/></marker><marker orient="auto" markerHeight="8" markerWidth="8" markerUnits="userSpaceOnUse" refY="5" refX="4.5" viewBox="0 0 10 10" class="marker flowchart-v2" id="my-svg_flowchart-v2-pointStart"><path style="stroke-width: 1; stroke-dasharray: 1, 0;" class="arrowMarkerPath" d="M 0 5 L 10 10 L 10 0 z"/></marker><marker orient="auto" markerHeight="11" markerWidth="11" markerUnits="userSpaceOnUse" refY="5" refX="11" viewBox="0 0 10 10" class="marker flowchart-v2" id="my-svg_flowchart-v2-circleEnd"><circle style="stroke-width: 1; stroke-dasharray: 1, 0;" class="arrowMarkerPath" r="5" cy="5" cx="5"/></marker><marker orient="auto" markerHeight="11" markerWidth="11" markerUnits="userSpaceOnUse" refY="5" refX="-1" viewBox="0 0 10 10" class="marker flowchart-v2" id="my-svg_flowchart-v2-circleStart"><circle style="stroke-width: 1; stroke-dasharray: 1, 0;" class="arrowMarkerPath" r="5" cy="5" cx="5"/></marker><marker orient="auto" markerHeight="11" markerWidth="11" markerUnits="userSpaceOnUse" refY="5.2" refX="12" viewBox="0 0 11 11" class="marker cross flowchart-v2" id="my-svg_flowchart-v2-crossEnd"><path style="stroke-width: 2; stroke-dasharray: 1, 0;" class="arrowMarkerPath" d="M 1,1 l 9,9 M 10,1 l -9,9"/></marker><marker orient="auto" markerHeight="11" markerWidth="11" markerUnits="userSpaceOnUse" refY="5.2" refX="-1" viewBox="0 0 11 11" class="marker cross flowchart-v2" id="my-svg_flowchart-v2-crossStart"><path style="stroke-width: 2; stroke-dasharray: 1, 0;" class="arrowMarkerPath" d="M 1,1 l 9,9 M 10,1 l -9,9"/></marker><g class="root"><g class="clusters"/><g class="edgePaths"><path marker-end="url(#my-svg_flowchart-v2-pointEnd)" style="" class="edge-thickness-normal edge-pattern-solid edge-thickness-normal edge-pattern-solid flowchart-link" id="L_trigger_labelCheck_0" d="M352.223,47L352.223,51.167C352.223,55.333,352.223,63.667,352.293,71.417C352.363,79.167,352.504,86.334,352.574,89.917L352.644,93.501"/><path marker-end="url(#my-svg_flowchart-v2-pointEnd)" style="" class="edge-thickness-normal edge-pattern-solid edge-thickness-normal edge-pattern-solid flowchart-link" id="L_scaleHarvest_prepareOpenSearch_1" d="M207.848,599L204.41,603.167C200.973,607.333,194.098,615.667,190.66,623.333C187.223,631,187.223,638,187.223,641.5L187.223,645"/><path marker-end="url(#my-svg_flowchart-v2-pointEnd)" style="" class="edge-thickness-normal edge-pattern-solid edge-thickness-normal edge-pattern-solid flowchart-link" id="L_prepareOpenSearch_halt_2" d="M67.809,871L63.327,875.167C58.844,879.333,49.879,887.667,45.397,906.5C40.914,925.333,40.914,954.667,40.914,986C40.914,1017.333,40.914,1050.667,40.914,1084C40.914,1117.333,40.914,1150.667,40.914,1184C40.914,1217.333,40.914,1250.667,40.914,1288C40.914,1325.333,40.914,1366.667,40.914,1408C40.914,1449.333,40.914,1490.667,70.273,1519.667C99.633,1548.668,158.351,1565.337,187.711,1573.671L217.07,1582.005"/><path marker-end="url(#my-svg_flowchart-v2-pointEnd)" style="" class="edge-thickness-normal edge-pattern-solid edge-thickness-normal edge-pattern-solid flowchart-link" id="L_prepareOpenSearch_swapServices_3" d="M275.086,871L278.384,875.167C281.682,879.333,288.279,887.667,291.577,895.333C294.875,903,294.875,910,294.875,913.5L294.875,917"/><path marker-end="url(#my-svg_flowchart-v2-pointEnd)" style="" class="edge-thickness-normal edge-pattern-solid edge-thickness-normal edge-pattern-solid flowchart-link" id="L_swapServices_halt_4" d="M168.215,1047L155.818,1053.167C143.42,1059.333,118.624,1071.667,106.226,1094.5C93.828,1117.333,93.828,1150.667,93.828,1184C93.828,1217.333,93.828,1250.667,93.828,1288C93.828,1325.333,93.828,1366.667,93.828,1408C93.828,1449.333,93.828,1490.667,114.379,1518.368C134.93,1546.069,176.032,1560.138,196.583,1567.172L217.134,1574.207"/><path marker-end="url(#my-svg_flowchart-v2-pointEnd)" style="" class="edge-thickness-normal edge-pattern-solid edge-thickness-normal edge-pattern-solid flowchart-link" id="L_swapServices_deployCodeOnly_5" d="M424.875,1021.91L460.362,1032.258C495.849,1042.606,566.823,1063.303,607.682,1083.237C648.54,1103.17,659.284,1122.34,664.656,1131.926L670.028,1141.511"/><path marker-end="url(#my-svg_flowchart-v2-pointEnd)" style="" class="edge-thickness-normal edge-pattern-solid edge-thickness-normal edge-pattern-solid flowchart-link" id="L_swapServices_restartCatalogMigration_6" d="M319.228,1047L321.612,1053.167C323.996,1059.333,328.764,1071.667,331.147,1083.333C333.531,1095,333.531,1106,333.531,1111.5L333.531,1117"/><path marker-end="url(#my-svg_flowchart-v2-pointEnd)" style="" class="edge-thickness-normal edge-pattern-solid edge-thickness-normal edge-pattern-solid flowchart-link" id="L_restartCatalogMigration_removeOld_7" d="M368.016,1247L371.392,1253.167C374.767,1259.333,381.518,1271.667,384.894,1283.333C388.27,1295,388.27,1306,388.27,1311.5L388.27,1317"/><path marker-end="url(#my-svg_flowchart-v2-pointEnd)" style="" class="edge-thickness-normal edge-pattern-solid edge-thickness-normal edge-pattern-solid flowchart-link" id="L_restartCatalogMigration_halt_8" d="M250.339,1247L242.196,1253.167C234.053,1259.333,217.767,1271.667,209.624,1298.5C201.48,1325.333,201.48,1366.667,201.48,1408C201.48,1449.333,201.48,1490.667,211.378,1517.162C221.275,1543.657,241.07,1555.314,250.968,1561.142L260.865,1566.97"/><path marker-end="url(#my-svg_flowchart-v2-pointEnd)" style="" class="edge-thickness-normal edge-pattern-solid edge-thickness-normal edge-pattern-solid flowchart-link" id="L_removeOld_halt_9" d="M388.27,1495L388.27,1501.167C388.27,1507.333,388.27,1519.667,385.913,1531.386C383.556,1543.106,378.842,1554.212,376.485,1559.765L374.128,1565.318"/><path marker-end="url(#my-svg_flowchart-v2-pointEnd)" style="" class="edge-thickness-normal edge-pattern-solid edge-thickness-normal edge-pattern-solid flowchart-link" id="L_labelCheck_scaleHarvest_10" d="M308.361,331.138L301.921,344.615C295.482,358.092,282.602,385.046,276.162,404.023C269.723,423,269.723,434,269.723,439.5L269.723,445"/><path marker-end="url(#my-svg_flowchart-v2-pointEnd)" style="" class="edge-thickness-normal edge-pattern-solid edge-thickness-normal edge-pattern-solid flowchart-link" id="L_labelCheck_deployCodeOnly_11" d="M445.356,282.867L488.436,304.389C531.517,325.911,617.678,368.956,660.759,409.144C703.84,449.333,703.84,486.667,703.84,522C703.84,557.333,703.84,590.667,703.84,630C703.84,669.333,703.84,714.667,703.84,760C703.84,805.333,703.84,850.667,703.84,888C703.84,925.333,703.84,954.667,703.84,986C703.84,1017.333,703.84,1050.667,702.89,1076.837C701.939,1103.007,700.039,1122.013,699.088,1131.517L698.138,1141.02"/><path marker-end="url(#my-svg_flowchart-v2-pointEnd)" style="" class="edge-thickness-normal edge-pattern-solid edge-thickness-normal edge-pattern-solid flowchart-link" id="L_scaleHarvest_halt_12" d="M399.723,569.848L425.314,578.873C450.905,587.899,502.087,605.949,527.678,637.641C553.27,669.333,553.27,714.667,553.27,760C553.27,805.333,553.27,850.667,553.27,888C553.27,925.333,553.27,954.667,553.27,986C553.27,1017.333,553.27,1050.667,553.27,1084C553.27,1117.333,553.27,1150.667,553.27,1184C553.27,1217.333,553.27,1250.667,553.27,1288C553.27,1325.333,553.27,1366.667,553.27,1408C553.27,1449.333,553.27,1490.667,539.701,1517.234C526.132,1543.802,498.995,1555.603,485.427,1561.504L471.858,1567.405"/><path marker-end="url(#my-svg_flowchart-v2-pointEnd)" style="" class="edge-thickness-normal edge-pattern-solid edge-thickness-normal edge-pattern-solid flowchart-link" id="L_deployCodeOnly_halt_13" d="M693.84,1223L693.84,1233.167C693.84,1243.333,693.84,1263.667,693.84,1294.5C693.84,1325.333,693.84,1366.667,693.84,1408C693.84,1449.333,693.84,1490.667,658.999,1520.274C624.157,1549.882,554.475,1567.764,519.634,1576.704L484.792,1585.645"/></g><g class="edgeLabels"><g class="edgeLabel"><g transform="translate(0, 0)" class="label"><foreignObject height="0" width="0"><div style="display: table-cell; white-space: nowrap; line-height: 1.5; max-width: 200px; text-align: center;" class="labelBkg" xmlns="http://www.w3.org/1999/xhtml"><span class="edgeLabel"></span></div></foreignObject></g></g><g class="edgeLabel"><g transform="translate(0, 0)" class="label"><foreignObject height="0" width="0"><div style="display: table-cell; white-space: nowrap; line-height: 1.5; max-width: 200px; text-align: center;" class="labelBkg" xmlns="http://www.w3.org/1999/xhtml"><span class="edgeLabel"></span></div></foreignObject></g></g><g transform="translate(40.9140625, 1184)" class="edgeLabel"><g transform="translate(-32.9140625, -12)" class="label"><foreignObject height="24" width="65.828125"><div style="display: table-cell; white-space: nowrap; line-height: 1.5; max-width: 200px; text-align: center;" class="labelBkg" xmlns="http://www.w3.org/1999/xhtml"><span class="edgeLabel"><p>on failure</p></span></div></foreignObject></g></g><g class="edgeLabel"><g transform="translate(0, 0)" class="label"><foreignObject height="0" width="0"><div style="display: table-cell; white-space: nowrap; line-height: 1.5; max-width: 200px; text-align: center;" class="labelBkg" xmlns="http://www.w3.org/1999/xhtml"><span class="edgeLabel"></span></div></foreignObject></g></g><g transform="translate(93.828125, 1284)" class="edgeLabel"><g transform="translate(-32.9140625, -12)" class="label"><foreignObject height="24" width="65.828125"><div style="display: table-cell; white-space: nowrap; line-height: 1.5; max-width: 200px; text-align: center;" class="labelBkg" xmlns="http://www.w3.org/1999/xhtml"><span class="edgeLabel"><p>on failure</p></span></div></foreignObject></g></g><g class="edgeLabel"><g transform="translate(0, 0)" class="label"><foreignObject height="0" width="0"><div style="display: table-cell; white-space: nowrap; line-height: 1.5; max-width: 200px; text-align: center;" class="labelBkg" xmlns="http://www.w3.org/1999/xhtml"><span class="edgeLabel"></span></div></foreignObject></g></g><g class="edgeLabel"><g transform="translate(0, 0)" class="label"><foreignObject height="0" width="0"><div style="display: table-cell; white-space: nowrap; line-height: 1.5; max-width: 200px; text-align: center;" class="labelBkg" xmlns="http://www.w3.org/1999/xhtml"><span class="edgeLabel"></span></div></foreignObject></g></g><g class="edgeLabel"><g transform="translate(0, 0)" class="label"><foreignObject height="0" width="0"><div style="display: table-cell; white-space: nowrap; line-height: 1.5; max-width: 200px; text-align: center;" class="labelBkg" xmlns="http://www.w3.org/1999/xhtml"><span class="edgeLabel"></span></div></foreignObject></g></g><g transform="translate(201.48046875, 1408)" class="edgeLabel"><g transform="translate(-21.7890625, -12)" class="label"><foreignObject height="24" width="43.578125"><div style="display: table-cell; white-space: nowrap; line-height: 1.5; max-width: 200px; text-align: center;" class="labelBkg" xmlns="http://www.w3.org/1999/xhtml"><span class="edgeLabel"><p>failure</p></span></div></foreignObject></g></g><g transform="translate(388.26953125, 1532)" class="edgeLabel"><g transform="translate(-32.9140625, -12)" class="label"><foreignObject height="24" width="65.828125"><div style="display: table-cell; white-space: nowrap; line-height: 1.5; max-width: 200px; text-align: center;" class="labelBkg" xmlns="http://www.w3.org/1999/xhtml"><span class="edgeLabel"><p>on failure</p></span></div></foreignObject></g></g><g transform="translate(269.72265625, 412)" class="edgeLabel"><g transform="translate(-12.453125, -12)" class="label"><foreignObject height="24" width="24.90625"><div style="display: table-cell; white-space: nowrap; line-height: 1.5; max-width: 200px; text-align: center;" class="labelBkg" xmlns="http://www.w3.org/1999/xhtml"><span class="edgeLabel"><p>yes</p></span></div></foreignObject></g></g><g transform="translate(703.83984375, 760)" class="edgeLabel"><g transform="translate(-8.8984375, -12)" class="label"><foreignObject height="24" width="17.796875"><div style="display: table-cell; white-space: nowrap; line-height: 1.5; max-width: 200px; text-align: center;" class="labelBkg" xmlns="http://www.w3.org/1999/xhtml"><span class="edgeLabel"><p>no</p></span></div></foreignObject></g></g><g transform="translate(553.26953125, 1084)" class="edgeLabel"><g transform="translate(-32.9140625, -12)" class="label"><foreignObject height="24" width="65.828125"><div style="display: table-cell; white-space: nowrap; line-height: 1.5; max-width: 200px; text-align: center;" class="labelBkg" xmlns="http://www.w3.org/1999/xhtml"><span class="edgeLabel"><p>on failure</p></span></div></foreignObject></g></g><g transform="translate(693.83984375, 1408)" class="edgeLabel"><g transform="translate(-32.9140625, -12)" class="label"><foreignObject height="24" width="65.828125"><div style="display: table-cell; white-space: nowrap; line-height: 1.5; max-width: 200px; text-align: center;" class="labelBkg" xmlns="http://www.w3.org/1999/xhtml"><span class="edgeLabel"><p>on failure</p></span></div></foreignObject></g></g></g><g class="nodes"><g transform="translate(352.22265625, 27.5)" id="flowchart-trigger-0" class="node default"><rect height="39" width="105.671875" y="-19.5" x="-52.8359375" ry="19.5" rx="19.5" style="" class="basic label-container"/><g transform="translate(-40.4609375, -12)" style="" class="label"><rect/><foreignObject height="24" width="80.921875"><div style="display: table-cell; white-space: nowrap; line-height: 1.5; max-width: 200px; text-align: center;" xmlns="http://www.w3.org/1999/xhtml"><span class="nodeLabel"><p>PR merged</p></span></div></foreignObject></g></g><g transform="translate(352.22265625, 236)" id="flowchart-labelCheck-1" class="node default"><polygon transform="translate(-139,139)" class="label-container" points="139,0 278,-139 139,-278 0,-139"/><g transform="translate(-100, -24)" style="" class="label"><rect/><foreignObject height="48" width="200"><div style="display: table; white-space: break-spaces; line-height: 1.5; max-width: 200px; text-align: center; width: 200px;" xmlns="http://www.w3.org/1999/xhtml"><span class="nodeLabel"><p>OpenSearch migration label attached?</p></span></div></foreignObject></g></g><g transform="translate(269.72265625, 524)" id="flowchart-scaleHarvest-2" class="node default"><rect height="150" width="260" y="-75" x="-130" style="" class="basic label-container"/><g transform="translate(-100, -60)" style="" class="label"><rect/><foreignObject height="120" width="200"><div style="display: table; white-space: break-spaces; line-height: 1.5; max-width: 200px; text-align: center; width: 200px;" xmlns="http://www.w3.org/1999/xhtml"><span class="nodeLabel"><p>GitHub Action:<br />set harvest jobs to 0<br />and restart harvester<br />to prevent new jobs from starting</p></span></div></foreignObject></g></g><g transform="translate(187.22265625, 760)" id="flowchart-prepareOpenSearch-3" class="node default"><rect height="222" width="260" y="-111" x="-130" style="" class="basic label-container"/><g transform="translate(-100, -96)" style="" class="label"><rect/><foreignObject height="192" width="200"><div style="display: table; white-space: break-spaces; line-height: 1.5; max-width: 200px; text-align: center; width: 200px;" xmlns="http://www.w3.org/1999/xhtml"><span class="nodeLabel"><p>GitHub Action:<br />build new OpenSearch service,<br />build temp harvest app with new code,<br />rebuild OpenSearch index,<br />validate enough data,<br />destroy temp harvest app</p></span></div></foreignObject></g></g><g transform="translate(350.91796875, 1620)" id="flowchart-halt-5" class="node default"><rect height="102" width="260" y="-51" x="-130" style="" class="basic label-container"/><g transform="translate(-100, -36)" style="" class="label"><rect/><foreignObject height="72" width="200"><div style="display: table; white-space: break-spaces; line-height: 1.5; max-width: 200px; text-align: center; width: 200px;" xmlns="http://www.w3.org/1999/xhtml"><span class="nodeLabel"><p>Stop Release:<br />Create ticket issue, disable deploy<br /></p></span></div></foreignObject></g></g><g transform="translate(294.875, 984)" id="flowchart-swapServices-7" class="node default"><rect height="126" width="260" y="-63" x="-130" style="" class="basic label-container"/><g transform="translate(-100, -48)" style="" class="label"><rect/><foreignObject height="96" width="200"><div style="display: table; white-space: break-spaces; line-height: 1.5; max-width: 200px; text-align: center; width: 200px;" xmlns="http://www.w3.org/1999/xhtml"><span class="nodeLabel"><p>GitHub Action:<br />swap service names<br />new to current, current to old<br /></p></span></div></foreignObject></g></g><g transform="translate(693.83984375, 1184)" id="flowchart-deployCodeOnly-11" class="node default"><rect height="78" width="162.28125" y="-39" x="-81.140625" style="" class="basic label-container"/><g transform="translate(-51.140625, -24)" style="" class="label"><rect/><foreignObject height="48" width="102.28125"><div style="display: table-cell; white-space: nowrap; line-height: 1.5; max-width: 200px; text-align: center;" xmlns="http://www.w3.org/1999/xhtml"><span class="nodeLabel"><p>GitHub Action:<br />deploy code</p></span></div></foreignObject></g></g><g transform="translate(333.53125, 1184)" id="flowchart-restartCatalogMigration-13" class="node default"><rect height="126" width="254.78125" y="-63" x="-127.390625" style="" class="basic label-container"/><g transform="translate(-97.390625, -48)" style="" class="label"><rect/><foreignObject height="96" width="194.78125"><div style="display: table-cell; white-space: nowrap; line-height: 1.5; max-width: 200px; text-align: center;" xmlns="http://www.w3.org/1999/xhtml"><span class="nodeLabel"><p>GitHub Action:<br />restart Catalog<br />deployment already in flight<br />counts as success</p></span></div></foreignObject></g></g><g transform="translate(388.26953125, 1408)" id="flowchart-removeOld-15" class="node default"><rect height="174" width="260" y="-87" x="-130" style="" class="basic label-container"/><g transform="translate(-100, -72)" style="" class="label"><rect/><foreignObject height="144" width="200"><div style="display: table; white-space: break-spaces; line-height: 1.5; max-width: 200px; text-align: center; width: 200px;" xmlns="http://www.w3.org/1999/xhtml"><span class="nodeLabel"><p>GitHub Action:<br />remove old OpenSearch service if no longer in use by harvester jobs; if it is in use then make a cleanup ticket for O&amp;M</p></span></div></foreignObject></g></g></g></g></g><text class="flowchartTitleText" y="-25" x="391.490234375" text-anchor="middle">OpenSearch Service Migration or Rebuild Process</text></svg>